Coordinates
version=1
nRows=9
nColumns=63
inDegrees=yes

Units are S.I. units (second, meters, Newtons, ...)
If the header above contains a line with 'inDegrees', this indicates whether rotational values are in degrees (yes) or radians (no).

endheader
time	pelvis_tilt	pelvis_list	pelvis_rotation	pelvis_tx	pelvis_ty	pelvis_tz	hip_flexion_r	hip_adduction_r	hip_rotation_r	knee_angle_r	knee_angle_r_beta	ankle_angle_r	subtalar_angle_r	mtp_angle_r	hip_flexion_l	hip_adduction_l	hip_rotation_l	knee_angle_l	knee_angle_l_beta	ankle_angle_l	subtalar_angle_l	mtp_angle_l	L5_S1_Flex_Ext	L5_S1_Lat_Bending	L5_S1_axial_rotation	L4_L5_Flex_Ext	L4_L5_Lat_Bending	L4_L5_axial_rotation	L3_L4_Flex_Ext	L3_L4_Lat_Bending	L3_L4_axial_rotation	L2_L3_Flex_Ext	L2_L3_Lat_Bending	L2_L3_axial_rotation	L1_L2_Flex_Ext	L1_L2_Lat_Bending	L1_L2_axial_rotation	L1_T12_Flex_Ext	L1_T12_Lat_Bending	L1_T12_axial_rotation	Abs_r3	Abs_r2	Abs_r1	Abs_t1	Abs_t2	neck_flexion	neck_bending	neck_rotation	arm_flex_r	arm_add_r	arm_rot_r	elbow_flex_r	pro_sup_r	wrist_flex_r	wrist_dev_r	arm_flex_l	arm_add_l	arm_rot_l	elbow_flex_l	pro_sup_l	wrist_flex_l	wrist_dev_l
      5.31034483	     -2.26613648	      9.28195067	     93.45496379	      0.21180016	      0.94150199	      0.46022346	     -7.18571065	     -2.33319875	    -10.53571044	     19.90968311	      0.34748952	     34.69214728	     -7.45227123	      0.00000000	     -1.47793119	     -1.04950850	      3.96967449	     29.65440846	      0.51756707	     23.38522744	    -15.01010172	      0.00000000	      0.08501642	      1.90459153	     -1.22557093	      0.15788400	      2.53310673	     -1.30216911	      0.13967348	      4.63082384	     -1.30216911	      0.09716527	      4.63082384	     -1.07237456	      0.07894625	      3.88384304	     -0.99577638	      0.04857838	      2.95021227	     -0.91917820	      0.60726381	     21.54512026	     -6.81625785	      0.00000000	      0.00000000	     18.47350133	     -2.30072273	     32.96284667	      2.90620462	    -22.83148937	    110.85814531	      9.22169775	      8.63132458	     -1.14464709	     -1.77752187	      2.82741533	    -11.12125884	     29.49630606	     63.26043960	     89.07353339	    -20.95607340	     -4.05387718
      5.32758621	     -2.22566448	      9.23883908	     93.86033221	      0.21128799	      0.94122308	      0.45999940	     -7.06603969	     -2.21577360	    -10.59623387	     20.03247066	      0.34963257	     35.28743580	     -7.40386791	      0.00000000	     -1.41399234	     -1.13358139	      4.28714703	     29.58272082	      0.51631588	     24.49916766	    -14.16330978	      0.00000000	      0.09839192	      1.87132419	     -1.42324817	      0.18272364	      2.48886117	     -1.51220118	      0.16164809	      4.54993763	     -1.51220118	      0.11245213	      4.54993763	     -1.24534215	      0.09136674	      3.81600428	     -1.15638914	      0.05622114	      2.89868117	     -1.06743613	      0.70280366	     21.16879348	     -7.91567935	      0.00000000	      0.00000000	     19.92746747	     -2.67533587	     31.94136963	      3.24432467	    -22.38903843	    112.92303161	      8.79395963	      9.96118645	     -1.21065651	     -1.62932744	      1.62255155	    -10.96919013	     32.03423850	     60.38618356	     89.15933422	    -28.37352643	     -9.72965685
      5.34482759	     -1.98469418	      9.16338111	     94.07735640	      0.21073166	      0.94112857	      0.45984288	     -6.91314026	     -1.93437569	    -10.60978928	     20.00807149	      0.34920672	     35.99681012	     -6.81245343	      0.00000000	     -1.37667122	     -1.35087730	      4.70721546	     29.40839071	      0.51327325	     25.56070976	    -13.68726292	      0.00000000	      0.11019270	      1.86420232	     -1.54477185	      0.20463887	      2.47938908	     -1.64132010	      0.18103559	      4.53262152	     -1.64132010	      0.12593924	      4.53262152	     -1.35167537	      0.10232494	      3.80148137	     -1.25512713	      0.06296411	      2.88764939	     -1.15857889	      0.78709546	     21.08822947	     -8.59155762	      0.00000000	      0.00000000	     20.93636739	     -2.65146335	     31.29073693	      3.69576340	    -21.83512415	    121.26234121	      7.73875933	      7.80082251	     -0.96588546	     -2.14859842	      0.56115605	    -10.76230082	     33.70809567	     58.58463290	     89.13551285	    -33.31038895	    -11.93538611
      5.36206897	     -1.73519161	      9.03088217	     94.45170327	      0.20998242	      0.94093667	      0.45974688	     -6.67118576	     -1.58437934	    -10.45600904	     20.03681701	      0.34970843	     36.68555401	     -6.61824792	      0.00000000	     -1.19430727	     -1.64034940	      5.03056501	     29.36879348	      0.51258214	     26.48203184	    -12.98030599	      0.00000000	      0.12442844	      1.85564956	     -1.71840475	      0.23107605	      2.46801391	     -1.82580505	      0.20442348	      4.51182634	     -1.82580505	      0.14220926	      4.51182634	     -1.50360416	      0.11554425	      3.78404058	     -1.39620386	      0.07109841	      2.87440117	     -1.28880357	      0.88877989	     20.99147895	     -9.55725172	      0.00000000	      0.00000000	     21.88811959	     -2.62481830	     30.35634666	      4.22747478	    -21.48491820	    125.66077853	      7.27154728	     10.74642303	     -1.60354244	     -2.54355176	     -1.27035554	    -10.54939388	     32.14823075	     59.10634687	     89.11353183	    -32.88979840	     -9.27262082
      5.37931034	     -1.48483618	      8.84257180	     94.63909522	      0.20927082	      0.94073796	      0.45971431	     -6.30593775	     -1.31219667	    -10.27233554	     20.18798815	      0.35234686	     37.21718240	     -6.27345743	      0.00000000	     -0.97279969	     -1.87951142	      5.25169350	     29.34735807	      0.51220803	     27.05040949	    -12.69048005	      0.00000000	      0.13587976	      1.85006085	     -1.85585445	      0.25234230	      2.46058093	     -1.97184535	      0.22323686	      4.49823796	     -1.97184535	      0.15529698	      4.49823796	     -1.62387264	      0.12617794	      3.77264409	     -1.50788174	      0.07764169	      2.86574426	     -1.39189084	      0.97057553	     20.92825838	    -10.32170569	      0.00000000	      0.00000000	     22.52511928	     -2.36812647	     29.69713103	      4.93511050	    -21.02287554	    134.28891572	      6.49125403	     11.13858216	     -2.05118537	     -3.13490020	     -3.32384775	    -10.23475963	     27.87104852	     61.17836545	     89.07586218	    -27.26762868	     -3.62398668
      5.39655172	     -1.25665116	      8.64911164	     94.71900745	      0.20901558	      0.94055104	      0.45956342	     -6.02544998	     -1.04194842	    -10.03495908	     20.20221653	      0.35259519	     37.48437641	     -6.25315417	      0.00000000	     -0.72410897	     -2.13671600	      5.20417789	     29.41032719	      0.51330704	     27.21355926	    -12.57763090	      0.00000000	      0.16689836	      1.83251789	     -1.91541587	      0.30994694	      2.43724879	     -2.03512937	      0.27419731	      4.45558400	     -2.03512937	      0.19074813	      4.45558400	     -1.67598889	      0.15498181	      3.73687048	     -1.55627540	      0.09536572	      2.83857021	     -1.43656191	      1.19213828	     20.72980888	    -10.65296847	      0.00000000	      0.00000000	     22.80783708	     -2.52876226	     27.98553934	      5.35925942	    -20.74672368	    138.33124902	      6.46243313	     13.63599589	     -3.03282640	     -3.71622991	     -4.45329255	    -10.32279531	     24.17813812	     63.69039458	     88.95592347	    -23.64580601	      3.01445243
      5.41379310	     -1.16240571	      8.68209546	     94.81948607	      0.20873742	      0.94071095	      0.46001281	     -5.99460238	     -0.88812753	     -9.66904841	     20.23127891	      0.35310243	     37.50569751	     -6.45966369	      0.00000000	     -0.66993610	     -2.21262409	      5.39205779	     29.53368999	      0.51546013	     27.24970963	    -12.59820518	      0.00000000	      0.15972243	      1.80979332	     -1.93923256	      0.29662053	      2.40702512	     -2.06043460	      0.26240798	      4.40033149	     -2.06043460	      0.18254677	      4.40033149	     -1.69682849	      0.14831825	      3.69053055	     -1.57562646	      0.09126540	      2.80336986	     -1.45442442	      1.14088136	     20.47274404	    -10.78542974	      0.00000000	      0.00000000	     22.49312308	     -2.46916487	     27.54994123	      5.85561951	    -20.14568409	    149.61522412	      5.68477279	     10.75908094	     -3.53003018	     -3.91286033	     -5.12580383	    -10.35627729	     18.55476366	     66.49869984	     88.85453517	    -15.38931220	      8.96687632
      5.43103448	     -1.17708941	      8.77443901	     94.72474112	      0.20890121	      0.94095670	      0.46039505	     -6.05056345	     -0.89448867	     -9.41252980	     20.26301559	      0.35365634	     37.38218766	     -6.61662608	      0.00000000	     -0.72120573	     -2.17760382	      5.37554484	     29.64458347	      0.51739559	     27.04087226	    -12.85774503	      0.00000000	      0.16471866	      1.77194990	     -1.86190914	      0.30589902	      2.35669337	     -1.97827846	      0.27061628	      4.30831899	     -1.97827846	      0.18825695	      4.30831899	     -1.62917050	      0.15295774	      3.61336024	     -1.51280117	      0.09412024	      2.74475040	     -1.39643185	      1.17656889	     20.04465167	    -10.35538005	      0.00000000	      0.00000000	     21.92573645	     -3.32036734	     25.96080424	      6.03570320	    -19.90263827	    151.66575561	      6.00403680	     12.28133451	     -4.05463781	     -3.89659164	     -5.23271158	    -10.97833074	     14.27661123	     69.94488449	     88.69017644	    -12.30066752	     13.42556410
      5.44827586	     -1.23181302	      8.97318973	     94.53438938	      0.20898226	      0.94143015	      0.46064232	     -6.32137773	     -0.95041090	     -9.10782994	     20.10784168	      0.35094804	     37.25100895	     -6.87831537	      0.00000000	     -0.93248421	     -2.07414283	      5.34470124	     29.70076650	      0.51837617	     26.57135985	    -13.22414314	      0.00000000	      0.16228590	      1.73878393	     -1.76593751	      0.30138114	      2.31258262	     -1.87630861	      0.26661950	      4.22767924	     -1.87630861	      0.18547655	      4.22767924	     -1.54519532	      0.15069869	      3.54572819	     -1.43482423	      0.09273016	      2.69337630	     -1.32445313	      1.15919194	     19.66947155	     -9.82161467	      0.00000000	      0.00000000	     20.88417695	     -4.46367956	     24.53299072	      6.16210993	    -19.77351059	    152.92547447	      6.48520241	     12.61061171	     -4.12131268	     -3.75099479	     -5.52884837	    -11.73979130	      9.37129360	     74.33112292	     88.56890332	     -9.58444539	     16.09252370
